<svg width="48" height="48" viewBox="0 0 48 48" fill="none" xmlns="http://www.w3.org/2000/svg">
<rect width="48" height="48" rx="6" fill="#1F000B"/>
<path d="M25.6002 12.8C25.6002 12.3757 25.4316 11.9687 25.1316 11.6686C24.8315 11.3686 24.4245 11.2 24.0002 11.2C23.5758 11.2 23.1689 11.3686 22.8688 11.6686C22.5688 11.9687 22.4002 12.3757 22.4002 12.8V14.4C22.4002 14.8243 22.5688 15.2313 22.8688 15.5314C23.1689 15.8314 23.5758 16 24.0002 16C24.4245 16 24.8315 15.8314 25.1316 15.5314C25.4316 15.2313 25.6002 14.8243 25.6002 14.4V12.8ZM33.0514 17.2112C33.3428 16.9094 33.5041 16.5053 33.5005 16.0858C33.4968 15.6662 33.3286 15.2649 33.0319 14.9683C32.7353 14.6716 32.334 14.5034 31.9144 14.4997C31.4949 14.4961 31.0908 14.6573 30.789 14.9488L29.6578 16.08C29.3663 16.3818 29.2051 16.7859 29.2087 17.2054C29.2124 17.625 29.3806 18.0263 29.6773 18.3229C29.9739 18.6196 30.3752 18.7878 30.7948 18.7915C31.2143 18.7951 31.6184 18.6339 31.9202 18.3424L33.0514 17.2112ZM36.8002 24C36.8002 24.4243 36.6316 24.8313 36.3316 25.1314C36.0315 25.4314 35.6245 25.6 35.2002 25.6H33.6002C33.1758 25.6 32.7689 25.4314 32.4688 25.1314C32.1688 24.8313 32.0002 24.4243 32.0002 24C32.0002 23.5757 32.1688 23.1687 32.4688 22.8686C32.7689 22.5686 33.1758 22.4 33.6002 22.4H35.2002C35.6245 22.4 36.0315 22.5686 36.3316 22.8686C36.6316 23.1687 36.8002 23.5757 36.8002 24ZM16.0802 18.3424C16.2278 18.4952 16.4043 18.6171 16.5995 18.701C16.7948 18.7848 17.0047 18.829 17.2172 18.8308C17.4296 18.8326 17.6403 18.7922 17.8369 18.7117C18.0336 18.6313 18.2122 18.5125 18.3624 18.3622C18.5127 18.212 18.6315 18.0334 18.7119 17.8367C18.7924 17.6401 18.8328 17.4294 18.831 17.217C18.8291 17.0045 18.785 16.7946 18.7012 16.5993C18.6173 16.4041 18.4954 16.2276 18.3426 16.08L17.2114 14.9488C16.9096 14.6573 16.5055 14.4961 16.086 14.4997C15.6664 14.5034 15.2651 14.6716 14.9685 14.9683C14.6718 15.2649 14.5036 15.6662 14.4999 16.0858C14.4963 16.5053 14.6575 16.9094 14.949 17.2112L16.0802 18.3424ZM16.0002 24C16.0002 24.4243 15.8316 24.8313 15.5316 25.1314C15.2315 25.4314 14.8245 25.6 14.4002 25.6H12.8002C12.3758 25.6 11.9689 25.4314 11.6688 25.1314C11.3688 24.8313 11.2002 24.4243 11.2002 24C11.2002 23.5757 11.3688 23.1687 11.6688 22.8686C11.9689 22.5686 12.3758 22.4 12.8002 22.4H14.4002C14.8245 22.4 15.2315 22.5686 15.5316 22.8686C15.8316 23.1687 16.0002 23.5757 16.0002 24ZM20.8002 33.6V32H27.2002V33.6C27.2002 34.4487 26.8631 35.2626 26.2629 35.8627C25.6628 36.4629 24.8489 36.8 24.0002 36.8C23.1515 36.8 22.3376 36.4629 21.7375 35.8627C21.1373 35.2626 20.8002 34.4487 20.8002 33.6ZM27.2002 30.4C27.2242 29.856 27.533 29.3664 27.9634 29.0256C29.0077 28.202 29.7695 27.0735 30.1428 25.797C30.5162 24.5206 30.4826 23.1594 30.0467 21.9029C29.6109 20.6464 28.7944 19.5569 27.7108 18.7858C26.6271 18.0147 25.3302 17.6004 24.0002 17.6004C22.6702 17.6004 21.3733 18.0147 20.2896 18.7858C19.206 19.5569 18.3895 20.6464 17.9536 21.9029C17.5178 23.1594 17.4842 24.5206 17.8576 25.797C18.2309 27.0735 18.9927 28.202 20.037 29.0256C20.469 29.3664 20.7762 29.856 20.7986 30.4H27.2018H27.2002Z" fill="#FFF0F6"/>
</svg>
